<?xml version="1.0" standalone="no"?><!DOCTYPE svg PUBLIC "-//W3C//DTD SVG 1.1//EN" "http://www.w3.org/Graphics/SVG/1.1/DTD/svg11.dtd"><svg t="1574926360332" class="icon" viewBox="0 0 1024 1024" version="1.1" xmlns="http://www.w3.org/2000/svg" p-id="8102" width="20" height="20" xmlns:xlink="http://www.w3.org/1999/xlink"><defs><style type="text/css"></style></defs><path d="M819.528072 957.874977l-391.752312 0c-67.686588 0-124.123972-48.070832-137.091308-111.929232l-2.820232 0 0-55.964616-83.946924 0c-77.270874 0-139.91154-62.641689-139.91154-139.91154l0-55.964616c0-77.270874 62.641689-139.91154 139.91154-139.91154l83.946924 0 0-55.964616 0-27.982308 0-55.964616c0-15.454994 12.527314-27.982308 27.982308-27.982308l615.610776 0c15.454994 0 27.982308 12.527314 27.982308 27.982308l0 251.840772 0 167.893848 0 83.946924C959.439612 895.234311 896.798946 957.874977 819.528072 957.874977zM203.917296 510.158049c-46.363957 0-83.946924 37.586037-83.946924 83.946924l0 55.964616c0 46.363957 37.582967 83.946924 83.946924 83.946924l83.946924 0 0-223.858464L203.917296 510.158049zM903.474996 566.122665l0-55.964616 0-167.893848-559.64616 0 0 27.982308 0 27.982308 0 27.982308 0 27.982308 0 27.982308 0 27.982308 0 223.858464 0 27.982308 0 27.982308 0 27.982308c0 46.363957 37.586037 83.946924 83.946924 83.946924l391.752312 0c46.360887 0 83.946924-37.582967 83.946924-83.946924L903.474996 566.122665zM791.545764 230.334969c-15.454994 0-27.982308-12.527314-27.982308-27.982308L763.563456 90.423429c0-15.454994 12.527314-27.982308 27.982308-27.982308 15.454994 0 27.982308 12.527314 27.982308 27.982308l0 111.929232C819.528072 217.807654 807.000757 230.334969 791.545764 230.334969zM623.651916 230.334969c-15.454994 0-27.982308-12.527314-27.982308-27.982308L595.669608 90.423429c0-15.454994 12.527314-27.982308 27.982308-27.982308s27.982308 12.527314 27.982308 27.982308l0 111.929232C651.634224 217.807654 639.10691 230.334969 623.651916 230.334969zM455.758068 230.334969c-15.454994 0-27.982308-12.527314-27.982308-27.982308L427.77576 90.423429c0-15.454994 12.527314-27.982308 27.982308-27.982308 15.454994 0 27.982308 12.527314 27.982308 27.982308l0 111.929232C483.740376 217.807654 471.213062 230.334969 455.758068 230.334969z" p-id="8103" fill=""></path><path d="M427.77576 62.441121l55.964616 0 0 167.893848-55.964616 0L427.77576 62.441121z" p-id="8104" fill=""></path><path d="M595.669608 62.441121l55.964616 0 0 167.893848-55.964616 0L595.669608 62.441121z" p-id="8105" fill=""></path><path d="M763.563456 62.441121l55.964616 0 0 167.893848-55.964616 0L763.563456 62.441121z" p-id="8106" fill=""></path></svg>
