<?xml version="1.0" standalone="no"?><!DOCTYPE svg PUBLIC "-//W3C//DTD SVG 1.1//EN" "http://www.w3.org/Graphics/SVG/1.1/DTD/svg11.dtd"><svg t="1577262132256" class="icon" viewBox="0 0 1024 1024" version="1.1" xmlns="http://www.w3.org/2000/svg" p-id="8172" width="20" height="20" xmlns:xlink="http://www.w3.org/1999/xlink"><defs><style type="text/css"></style></defs><path d="M793.6 896H230.4c-56.6 0-102.4-43.3-102.4-96.6V600.1c0-13.3 11.4-24.1 25.6-24.1h12.8c14.2 0 25.6 10.8 25.6 24.1v184c0 26.6 23 47.8 51.2 47.8h537.5c28.3 0 51.2-21.6 51.2-48.3V600.1c0-13.3 11.4-24.1 25.6-24.1h12.9c14.2 0 25.6 10.8 25.6 24.1v199.4c0 53.3-45.8 96.5-102.4 96.5zM308.8 453.1c6.4-6.1 16.9-6.1 23.4 0l147.9 143V153c0-8.3 1.3-25 18.5-25h25.9c18.8 0 18.6 16.7 18.6 25v443l147.1-143c6.4-6.1 16.9-6.1 23.3 0l23.4 22c6.4 6.1 6.4 15.9 0 22L532.6 693.9c-0.5 0.5-10.8 6.4-21.1 6.4-10.4 0-20.9-5.9-21.5-6.4L285.5 497.1c-6.4-6.1-6.4-15.9 0-22l23.3-22z m0 0" p-id="8173"></path></svg>