<?xml version="1.0" standalone="no"?><!DOCTYPE svg PUBLIC "-//W3C//DTD SVG 1.1//EN" "http://www.w3.org/Graphics/SVG/1.1/DTD/svg11.dtd"><svg t="1566958051407" class="icon" viewBox="0 0 1024 1024" version="1.1" xmlns="http://www.w3.org/2000/svg" p-id="16542" width="20" height="20" xmlns:xlink="http://www.w3.org/1999/xlink"><defs><style type="text/css"></style></defs><path d="M512.58 384.75A127.25 127.25 0 1 0 639.83 512a127.4 127.4 0 0 0-127.25-127.25z m0 174.5A47.25 47.25 0 1 1 559.83 512a47.3 47.3 0 0 1-47.25 47.25zM342.71 292.35a40 40 0 0 0-56.57 0 310.62 310.62 0 0 0 0 439.29 40 40 0 1 0 56.57-56.57c-89.92-89.92-89.92-236.23 0-326.15a40 40 0 0 0 0-56.57z" fill="" p-id="16543"></path><path d="M89.44 512c0-111.21 43.31-215.76 121.94-294.4a40 40 0 0 0-56.57-56.6 496 496 0 0 0 0 701.94 40 40 0 0 0 56.57-56.57C132.75 727.76 89.44 623.21 89.44 512zM737.86 292.35a40 40 0 0 0-56.57 56.57 230.62 230.62 0 0 1 0 326.15 40 40 0 1 0 56.57 56.57 310.62 310.62 0 0 0 0-439.29z" fill="" p-id="16544"></path><path d="M978.21 325.25A493.26 493.26 0 0 0 869.19 161a40 40 0 1 0-56.57 56.57C891.25 296.24 934.56 400.79 934.56 512s-43.31 215.76-121.94 294.4a40 40 0 1 0 56.57 56.6 496.86 496.86 0 0 0 109-537.72z" fill="" p-id="16545"></path></svg>
