<?xml version="1.0" standalone="no"?><!DOCTYPE svg PUBLIC "-//W3C//DTD SVG 1.1//EN" "http://www.w3.org/Graphics/SVG/1.1/DTD/svg11.dtd"><svg t="1566901826596" class="icon" viewBox="0 0 1024 1024" version="1.1" xmlns="http://www.w3.org/2000/svg" p-id="12737" width="20" height="20" xmlns:xlink="http://www.w3.org/1999/xlink"><defs><style type="text/css"></style></defs><path d="M435.748571 711.350857v-365.531428c0-19.090286 15.286857-38.765714 32.987429-42.057143l264.045714-49.133715c14.08-2.633143 23.552 6.034286 23.552 21.028572v361.856h28.288v-361.874286c0-34.377143-25.325714-57.508571-56.576-51.693714l-264.027428 49.133714c-31.250286 5.796571-56.576 38.381714-56.576 72.758857v371.492572l28.288-5.979429z m0 0v-365.531428c0-19.090286 15.286857-38.765714 32.987429-42.057143l264.045714-49.133715c14.08-2.633143 23.552 6.034286 23.552 21.028572v361.856h28.288v-361.874286c0-34.377143-25.325714-57.508571-56.576-51.693714l-264.027428 49.133714c-31.250286 5.796571-56.576 38.381714-56.576 72.758857v371.492572l28.288-5.979429z" fill="#000000" p-id="12738"></path><path d="M334.299429 788.370286c40.594286-7.68 73.142857-43.977143 73.142857-77.074286 0-28.233143-26.185143-47.488-63.542857-40.411429-40.557714 7.68-73.051429 43.940571-73.051429 77.037715 0 28.288 26.130286 47.524571 63.451429 40.448z m4.790857 30.665143c-53.302857 10.112-96.530286-21.723429-96.530286-71.113143 0-49.371429 43.227429-97.590857 96.548571-107.702857 53.302857-10.112 96.621714 21.705143 96.621715 71.076571s-43.337143 97.645714-96.64 107.739429z m332.361143-105.673143c42.349714-4.626286 80.603429-39.478857 84.626285-73.307429 3.236571-27.337143-19.84-47.725714-57.819428-43.574857-42.203429 4.608-80.018286 39.277714-84.059429 73.270857-3.254857 27.501714 19.419429 47.762286 57.234286 43.611429z m2.797714 30.976c-54.509714 5.961143-93.952-29.257143-88.100572-78.628572 5.851429-49.371429 54.802286-94.244571 109.312-100.205714 54.491429-5.942857 94.537143 29.202286 88.667429 78.573714-5.851429 49.371429-55.369143 94.299429-109.897143 100.260572zM437.339429 442.276571c-5.12 0.987429-10.002286-2.816-10.898286-8.448-0.877714-5.668571 2.56-11.008 7.698286-11.995428l320.64-60.672c5.12-0.987429 10.002286 2.816 10.88 8.448 0.896 5.668571-2.56 11.008-7.68 11.995428l-320.64 60.672z" fill="#000000" p-id="12739"></path></svg>