<?xml version="1.0" standalone="no"?><!DOCTYPE svg PUBLIC "-//W3C//DTD SVG 1.1//EN" "http://www.w3.org/Graphics/SVG/1.1/DTD/svg11.dtd"><svg t="1567582031918" class="icon" viewBox="0 0 1024 1024" version="1.1" xmlns="http://www.w3.org/2000/svg" p-id="8308" width="20" height="20" xmlns:xlink="http://www.w3.org/1999/xlink"><defs><style type="text/css"></style></defs><path d="M736 120v784H288V120h448m0-56H288c-30.9 0-56 25.1-56 56v784c0 30.9 25.1 56 56 56h448c30.9 0 56-25.1 56-56V120c0-30.9-25.1-56-56-56z" p-id="8309" fill=""></path><path d="M746.2 232H288v56h458.2v-56z m-5.1 504H282.9v56h458.2v-56zM512 820c-15.5 0-28 12.5-28 28s12.5 28 28 28 28-12.5 28-28-12.5-28-28-28z" p-id="8310" fill=""></path></svg>
