<?xml version="1.0" standalone="no"?><!DOCTYPE svg PUBLIC "-//W3C//DTD SVG 1.1//EN" "http://www.w3.org/Graphics/SVG/1.1/DTD/svg11.dtd"><svg t="1577260858487" class="icon" viewBox="0 0 1024 1024" version="1.1" xmlns="http://www.w3.org/2000/svg" p-id="3373" width="20" height="20" xmlns:xlink="http://www.w3.org/1999/xlink"><defs><style type="text/css"></style></defs><path d="M512 1024C229.236364 1024 0 794.763636 0 512S229.236364 0 512 0s512 229.236364 512 512-229.236364 512-512 512z m0-46.545455c257.070545 0 465.454545-208.384 465.454545-465.454545S769.070545 46.545455 512 46.545455 46.545455 254.929455 46.545455 512s208.384 465.454545 465.454545 465.454545z m170.170182-446.324363L443.810909 696.180364a23.272727 23.272727 0 0 1-36.514909-19.153455V346.996364a23.272727 23.272727 0 0 1 36.538182-19.153455l238.359273 165.050182a23.272727 23.272727 0 0 1 0 38.260364z" p-id="3374"></path></svg>