<?xml version="1.0" standalone="no"?><!DOCTYPE svg PUBLIC "-//W3C//DTD SVG 1.1//EN" "http://www.w3.org/Graphics/SVG/1.1/DTD/svg11.dtd"><svg t="1574926417141" class="icon" viewBox="0 0 1025 1024" version="1.1" xmlns="http://www.w3.org/2000/svg" p-id="10242" width="20.01953125" height="20" xmlns:xlink="http://www.w3.org/1999/xlink"><defs><style type="text/css"></style></defs><path d="M512.015 992C246.905 992 32.015 777.11 32.015 512 32.015 246.89 246.905 32 512.015 32 777.11 32 992 246.89 992 512 992 777.11 777.11 992 512.015 992ZM512.015 92C280.415 92 92.015 280.4 92.015 512 92.015 743.585 280.415 932 512.015 932 743.6 932 932 743.585 932 512 932 280.4 743.6 92 512.015 92ZM510.44 813.365C509.24 813.365 508.01 813.395 506.795 813.395 323.555 813.395 246.71 648.05 243.515 640.955 236.69 625.835 243.395 608.09 258.485 601.265 273.605 594.47 291.29 601.145 298.145 616.145 300.725 621.8 362.87 753.395 506.915 753.395 507.86 753.395 508.79 753.365 509.735 753.365 662.84 751.58 724.22 617.72 724.835 616.385 731.54 601.265 749.21 594.38 764.435 601.205 779.555 607.94 786.38 625.67 779.615 640.82 776.54 647.75 701.57 811.115 510.44 813.365ZM661.535 481.85C628.46 481.85 601.685 455.03 601.685 421.985 601.685 388.97 628.46 362.165 661.535 362.165 694.595 362.165 721.385 388.97 721.385 421.985 721.385 455.03 694.595 481.85 661.535 481.85ZM361.535 481.85C328.46 481.85 301.685 455.03 301.685 421.985 301.685 388.97 328.46 362.165 361.535 362.165 394.595 362.165 421.385 388.97 421.385 421.985 421.385 455.03 394.595 481.85 361.535 481.85Z" p-id="10243" fill=""></path></svg>
