<?xml version="1.0" standalone="no"?><!DOCTYPE svg PUBLIC "-//W3C//DTD SVG 1.1//EN" "http://www.w3.org/Graphics/SVG/1.1/DTD/svg11.dtd"><svg t="1574926296347" class="icon" viewBox="0 0 1025 1024" version="1.1" xmlns="http://www.w3.org/2000/svg" p-id="6820" width="20.01953125" height="20" xmlns:xlink="http://www.w3.org/1999/xlink"><defs><style type="text/css"></style></defs><path d="M614.416 46.525c0.655 0 1.305 0 1.74 0.11 1.085 5.885 0.87 20.805-8.5 45.97l-81.155 220.264c-21.02 56.97-69.72 98.255-115.795 98.255-8.605 0-16.995-1.42-24.84-4.36-51.515-18.955-77.885-76.25-58.93-127.77 23.53-63.73 113.075-153.925 191.615-192.925l52.615-26.145c24.515-12.09 38.345-13.4 43.24-13.4m96.52 274.4a97.543 97.543 0 0 1 33.985 6.105c63.725 23.53 153.92 113.07 192.925 191.609l26.15 52.615c11.975 24.075 13.715 38.89 13.39 44.885-1.315 0.21-3.27 0.435-6.105 0.435-7.285 0-20.04-1.535-39.98-8.835l-220.259-81.155c-69.49-25.595-112.525-89.97-93.89-140.625 14.364-38.889 52.054-65.034 93.784-65.034M52.648 407.419c7.295 0 20.045 1.525 39.98 8.83l220.26 81.15c35.404 13.065 65.574 36.93 82.894 65.47 15.47 25.59 19.395 52.285 11.005 75.16-14.38 38.895-51.965 65.035-93.685 65.035a97.559 97.559 0 0 1-33.985-6.1c-63.725-23.42-153.92-113.075-192.92-191.61l-26.14-52.615c-11.99-24.075-13.73-38.895-13.4-44.88 1.31-0.22 3.275-0.435 5.99-0.435m560.56 205.334c8.61 0 16.994 1.415 24.844 4.355 51.52 18.955 77.885 76.25 58.93 127.78-23.425 63.72-113.07 153.925-191.615 193.024l-52.61 26.15c-24.29 12.09-38.235 13.395-43.14 13.395-0.645 0-1.305 0-1.74-0.105-1.09-5.88-0.87-20.815 8.495-45.97l81.155-220.269c20.805-56.97 69.615-98.36 115.69-98.36m1.2-612.743c-17.33 0-38.89 5.88-63.84 18.185l-52.615 26.15c-90.305 44.88-186.815 143.245-214.594 218.514-27.78 75.49 11.11 159.805 86.49 187.585 13.295 4.9 27.015 7.195 40.85 7.195 64.6 0 130.825-50.88 159.48-128.765l81.155-220.259C676.612 40.21 659.842 0.015 614.416 0.015z m96.51 274.394c-59.48 0-115.69 36.605-137.365 95.535-27.775 75.38 26.9 165.58 121.465 200.324l220.25 81.16c21.68 7.945 40.414 11.76 56.11 11.76 52.604 0 68.95-42.91 34.414-112.525l-26.145-52.615c-44.875-90.3-143.25-186.815-218.514-214.594-16.665-6.21-33.55-9.045-50.215-9.045z m-658.278 86.39c-52.725 0-68.955 42.915-34.42 112.525l26.14 52.615c44.885 90.3 143.245 186.82 218.52 214.599 16.444 6.1 33.444 8.925 50.104 8.925 59.48 0 115.69-36.6 137.365-95.52 27.785-75.395-26.905-165.585-121.46-200.34l-220.149-81.04c-21.68-7.954-40.525-11.764-56.1-11.764z m560.558 205.44c-64.585 0-130.82 50.875-159.47 128.77l-81.155 220.249c-25.16 68.415-8.39 108.725 37.035 108.725 17.325 0 38.895-5.89 63.84-18.195l52.61-26.14c90.31-44.89 186.815-143.25 214.6-218.519 27.784-75.39-11.22-159.7-86.6-187.474-13.296-5.015-27.02-7.415-40.85-7.415h-0.01z" p-id="6821" fill=""></path></svg>
